<?xml version="1.0" encoding="UTF-8"?>
<svg width="128" height="128" version="1.1" viewBox="0 0 33.867 33.867" xmlns="http://www.w3.org/2000/svg">
 <g transform="translate(0 -263.13)">
  <path d="m4.7868 264.72h24.292c1.7593 0 3.2006 1.4396 3.2006 3.2004v24.29c0 1.7614-1.4413 3.2009-3.2006 3.2009h-24.292c-1.7611 0-3.1994-1.4396-3.1994-3.2009v-24.29c0-1.7608 1.4383-3.2004 3.1994-3.2004" fill="#737370" stroke-width=".26458"/>
  <g transform="matrix(.051145 0 0 .051145 3.0863 266.53)" fill="#ebeded">
   <path d="m118.77 0c32.8 0 62.49 13.29 83.98 34.79 21.49 21.49 34.79 51.19 34.79 83.98s-13.29 62.49-34.79 83.98c-21.49 21.49-51.19 34.79-83.98 34.79-32.8 0-62.49-13.29-83.98-34.79-21.5-21.49-34.79-51.19-34.79-83.98s13.29-62.49 34.79-83.98c21.49-21.5 51.18-34.79 83.98-34.79zm-9.71 60.2c0-3.59 2.91-6.5 6.5-6.5s6.5 2.91 6.5 6.5v60l45.14 26.76c3.08 1.82 4.11 5.8 2.29 8.89-1.82 3.08-5.8 4.11-8.89 2.29l-47.99-28.45c-2.11-1.08-3.55-3.27-3.55-5.79zm84.5-16.22c-19.14-19.14-45.58-30.98-74.79-30.98s-55.65 11.84-74.79 30.98-30.98 45.58-30.98 74.79 11.84 55.65 30.98 74.79 45.58 30.98 74.79 30.98 55.65-11.84 74.79-30.98 30.98-45.58 30.98-74.79-11.84-55.65-30.98-74.79z" fill="#ebeded"/>
  </g>
  <g transform="matrix(.16331 0 0 .16331 12.209 273.02)" fill="#82d1f5">
   <path class="st0" d="m63.85 18.63h3.9v6.55h16.4c3.7 0 6.72 3.02 6.72 6.72v5.1c-2.55 2.11-4.91 3.25-7.05 3.3-2.68 0.07-5.24-1.66-7.65-5.39-0.13-0.2-0.3-0.38-0.5-0.52-0.89-0.65-2.13-0.45-2.78 0.44-2.44 3.35-4.95 5.21-7.53 5.35-2.61 0.14-5.53-1.46-8.79-5.03-0.04-0.05-0.09-0.09-0.13-0.13-0.82-0.74-2.08-0.68-2.82 0.13-3.06 3.36-5.92 5.1-8.58 5.13-2.6 0.03-5.22-1.61-7.86-5.01-0.12-0.15-0.26-0.29-0.43-0.41-0.9-0.63-2.15-0.42-2.78 0.48-1.95 2.76-4.22 4.4-6.66 4.84-1.67 0.3-3.47 0.02-5.39-0.77-3.96-1.63-2.53-2.56-2.79-7.5-0.2-3.69 3.03-6.73 6.73-6.73h16.35v-6.55h3.9v6.55h6.93v-14.26h3.9v14.26h6.93v-6.55zm-63.85 96.25h110.08v8h-110.08zm90.87-72.96v0.22h-0.35c0.11-0.07 0.23-0.14 0.35-0.22zm-1.56 0.89v20.52h-68.54v-20.06c2.48 0.99 4.91 1.26 7.23 0.84 2.82-0.51 5.4-2.02 7.64-4.48 2.98 3.15 6.12 4.67 9.42 4.64 3.35-0.04 6.69-1.7 10.03-4.91 3.6 3.46 7.09 4.99 10.47 4.81 3.19-0.17 6.13-1.86 8.85-4.89 2.85 3.49 6.03 5.1 9.51 5.01 1.76-0.05 3.56-0.55 5.39-1.48zm-74.11 24.14h79.76c5.06 0 9.19 4.14 9.19 9.19v6.98c-3.49 2.89-6.71 4.44-9.65 4.52-3.66 0.09-7.16-2.26-10.47-7.37-0.18-0.27-0.4-0.52-0.68-0.72-1.22-0.89-2.92-0.62-3.8 0.6-3.34 4.58-6.77 7.13-10.3 7.32-3.57 0.19-7.56-1.99-12.02-6.88l-0.18-0.18c-1.12-1.02-2.84-0.93-3.86 0.18-4.18 4.59-8.1 6.97-11.74 7.01-3.55 0.04-7.14-2.2-10.75-6.85-0.16-0.21-0.36-0.4-0.59-0.56-1.23-0.87-2.94-0.57-3.8 0.66-2.66 3.78-5.77 6.02-9.11 6.62-2.29 0.41-4.75 0.02-7.38-1.06-5.43-2.22-3.46-3.49-3.82-10.26-0.27-5.05 4.14-9.2 9.2-9.2zm88.95 22.9v0.3h-0.48c0.16-0.09 0.32-0.19 0.48-0.3zm-2.13 1.22v21.49h-93.76v-20.87c3.39 1.35 6.72 1.72 9.89 1.15 3.86-0.7 7.39-2.77 10.45-6.13 4.07 4.31 8.37 6.39 12.89 6.34 4.58-0.05 9.16-2.32 13.72-6.71 4.93 4.73 9.7 6.83 14.32 6.58 4.37-0.23 8.39-2.54 12.1-6.68 3.9 4.77 8.25 6.98 13 6.86 2.42-0.07 4.88-0.76 7.39-2.03zm-57.89-83.36c8.24 11.94-8.19 14.08 0 0zm10.83-7.71c8.24 11.94-8.2 14.08 0 0zm10.83 7.71c8.23 11.94-8.2 14.08 0 0z" fill="#82d1f5"/>
  </g>
 </g>
</svg>
